<?xml version="1.0" encoding="utf-8"?>
<!-- Generator: Adobe Illustrator 16.0.0, SVG Export Plug-In . SVG Version: 6.00 Build 0)  -->
<!DOCTYPE svg PUBLIC "-//W3C//DTD SVG 1.1//EN" "http://www.w3.org/Graphics/SVG/1.1/DTD/svg11.dtd">
<svg version="1.1" id="Layer_1" xmlns="http://www.w3.org/2000/svg" xmlns:xlink="http://www.w3.org/1999/xlink" x="0px" y="0px"
	 width="655px" height="218px" viewBox="0 0 655 218" enable-background="new 0 0 655 218" xml:space="preserve">
<g>
	<path fill="#FFFFFF" d="M258.125,113.775l6.293-22.371l6.29,22.371H258.125z M269.201,74.393h-9.569h-5.378l-21.842,66.596h18.06
		l7.147-25.414l3.22,12.277h13.829l3.694,13.137h18.061L274.58,74.393H269.201z"/>
	<path fill="#FFFFFF" d="M565.679,113.775l6.291-22.371l6.291,22.371H565.679z M576.755,74.393h-9.57h-5.377l-21.844,66.596h18.061
		l7.148-25.414l3.219,12.277h13.83l3.693,13.137h18.061l-21.842-66.596H576.755z"/>
	<g>
		<path fill="#FFFFFF" d="M335.175,120.484c0,2.953-2.393,5.346-5.348,5.346h-8.57c-2.953,0-5.348-2.393-5.348-5.346v-25.57
			c0-2.953,2.395-5.346,5.348-5.346h8.57c2.955,0,5.348,2.393,5.348,5.346V120.484z M334.767,74.412h-18.449
			c-10.039,0-18.18,8.139-18.18,18.18v30.215c0,10.041,8.141,18.18,18.18,18.18h18.449c10.041,0,18.18-8.139,18.18-18.18v-7.424
			V92.592C352.946,82.551,344.808,74.412,334.767,74.412"/>
		<path fill="#FFFFFF" d="M392.497,120.484V74.387h-17.771v48.418c0,10.041,8.139,18.182,18.18,18.182h30.707v-15.154h-25.768
			C394.89,125.832,392.497,123.438,392.497,120.484"/>
		<path fill="#FFFFFF" d="M514.438,89.566h16.402l7.152-15.154h-28.494c-10.041,0-18.18,8.141-18.18,18.18v30.213
			c0,10.041,8.139,18.182,18.18,18.182h26.461v-15.154h-21.521c-2.953,0-5.348-2.395-5.348-5.348v-25.57
			C509.091,91.961,511.485,89.566,514.438,89.566"/>
		<path fill="#FFFFFF" d="M218.847,103.744l-14.253-5.863c-1.708-0.701-2.821-2.365-2.821-4.211c0-2.441,1.979-4.424,4.423-4.424
			h16.874l4.754-14.854h-26.851c-10.183,0-18.439,8.256-18.439,18.439v1.131c0,7.744,4.675,14.721,11.838,17.664l14.253,5.865
			c1.706,0.699,2.821,2.363,2.821,4.209c0,2.443-1.98,4.424-4.423,4.424h-20.219v14.854h25.44c10.184,0,18.44-8.256,18.44-18.439
			v-1.131C230.685,113.664,226.008,106.688,218.847,103.744"/>
		<path fill="#FFFFFF" d="M640.575,103.744l-14.254-5.863c-1.707-0.701-2.82-2.365-2.82-4.211c0-2.441,1.979-4.424,4.422-4.424
			h16.875l4.754-14.854h-26.85c-10.184,0-18.441,8.256-18.441,18.439v1.131c0,7.744,4.676,14.721,11.838,17.664l14.254,5.865
			c1.705,0.699,2.82,2.363,2.82,4.209c0,2.443-1.979,4.424-4.422,4.424h-20.219v14.854h25.441c10.182,0,18.439-8.256,18.439-18.439
			v-1.131C652.413,113.664,647.735,106.688,640.575,103.744"/>
		<path fill="#FFFFFF" d="M258.108,65.785c2.709,0,10.741,4.182,13.642,4.182c3.104,0,5.604-0.951,7.493-2.852
			c1.73-1.742,3.231-3.934,4.522-6.531l-7.853-4.576c-0.068,0.113-1.631,2.508-2.334,2.984c-0.704,0.475-1.466,0.711-2.289,0.711
			c-1.141,0-2.246-0.221-3.319-0.664s-6.87-3.611-10.129-3.611c-3.041,0-5.557,0.889-7.535,2.66
			c-1.878,1.678-3.437,3.711-4.695,6.068l7.801,4.547C254.688,66.762,256.251,65.785,258.108,65.785"/>
		<path fill="#FFFFFF" d="M465.144,125.83H451.71c-2.951,0-5.346-2.393-5.346-5.348V74.424h-17.773v48.383
			c0,10.039,8.139,18.18,18.18,18.18l36.145,0.004V74.387h-17.771V125.83z"/>
	</g>
	<g>
		<path fill="#FFFFFF" d="M73.647,84.98l43.859-26.412l2.854,1.66L73.672,88.344L73.647,84.98z M73.593,77.193v-1.527l36.039-21.67
			l2.854,1.658L73.604,79.029L73.593,77.193z M73.593,66.313l28.148-16.898l2.857,1.658L73.593,69.684V66.313z M73.593,56.963
			l20.249-12.137l2.856,1.656L73.593,60.334V56.963z M73.593,47.611l12.337-7.383l2.857,1.658l-15.194,9.096V47.611z M73.593,38.264
			l4.413-2.637l2.857,1.658l-7.271,4.344V38.264z M125.498,0.617L73.571,32.416l-0.019-0.008v0.023L1.125,76.787H1.122v0.006
			l0.003,5.592l4.647-2.848l2.82,1.666l-7.468,4.563v5.9l12.383-7.561l2.821,1.664L1.125,95.049v5.896l20.128-12.268l2.823,1.666
			l-22.951,13.99v5.893l27.888-16.969l2.82,1.666L1.125,113.607v5.902l35.659-21.666l2.821,1.666l-38.48,23.389v5.895l43.44-26.355
			l2.824,1.666L1.125,132.176v5.898l51.35-30.969l0.182-0.109h-0.003l21.058-12.701l37.052-22.348l-0.058,0.041l13.635-8.229
			l1.146-0.689l0.01-0.006l0.003-1.01V0.617z"/>
		<polygon fill="#FFFFFF" points="1.616,141.152 6.556,144.068 60.36,111.523 55.363,108.592 		"/>
		<polygon fill="#FFFFFF" points="63.197,113.186 9.381,145.738 14.332,148.66 68.203,116.123 		"/>
		<polygon fill="#FFFFFF" points="71.043,117.785 17.159,150.332 22.122,153.26 76.061,120.729 		"/>
		<path fill="#FFFFFF" d="M69.154,180.963l7.647-4.57v3.367l-4.817,2.875L69.154,180.963z M61.291,176.324l15.511-9.285v3.371
			l-12.675,7.584L61.291,176.324z M53.443,171.689l23.358-14.002v3.373l-20.525,12.301L53.443,171.689z M45.607,167.064
			l31.194-18.727v3.367l-28.364,17.031L45.607,167.064z M37.784,162.447l39.018-23.465v3.373L40.61,164.119L37.784,162.447z
			 M29.97,157.832l46.832-28.199v3.373l-44.003,26.498L29.97,157.832z M111.688,102.615l0.161-0.098l-84.357,50.877l-2.544,1.535
			l-0.006,0.004l-0.013,2.988v59.461h0.006l51.927-31.805l0.021,0.014v-0.023l72.428-44.361l0.003,0.004v-0.414l-0.003-5.182
			l-4.344,2.658l-2.842-1.65l7.183-4.395l0.003-5.896l-12.14,7.412l-2.845-1.652l14.981-9.141l0.003-5.902l-19.948,12.162
			l-2.842-1.654l22.787-13.893l0.003-5.891l-27.766,16.896l-2.845-1.654l30.61-18.629V98.49l-35.599,21.629l-2.845-1.654
			l38.443-23.363v-5.896l-43.44,26.357l-2.848-1.652l46.288-28.086v-5.898L111.688,102.615z"/>
		<polygon fill="#FFFFFF" points="90.072,106.475 95.069,109.404 148.819,76.842 143.878,73.928 		"/>
		<polygon fill="#FFFFFF" points="87.237,104.811 141.055,72.258 136.104,69.338 82.231,101.875 		"/>
		<polygon fill="#FFFFFF" points="79.394,100.211 133.278,67.666 128.314,64.738 74.376,97.27 		"/>
	</g>
	<g>
		<polygon fill="#FFFFFF" points="182.892,185.957 198.444,185.957 198.444,184.229 184.836,184.229 184.836,173.897 
			196.428,173.897 196.428,172.169 184.836,172.169 184.836,162.053 198.444,162.053 198.444,160.325 182.892,160.325 		"/>
		<path fill="#FFFFFF" d="M245.225,167.399c-0.156-0.876-0.401-1.723-0.737-2.538c-0.337-0.816-0.828-1.548-1.477-2.196
			c-1.56-1.56-3.696-2.34-6.407-2.34H228v25.632h8.604c1.344,0,2.556-0.198,3.636-0.594c1.08-0.396,2.004-0.978,2.771-1.746
			c0.648-0.648,1.14-1.416,1.477-2.304c0.336-0.888,0.581-1.818,0.737-2.79c0.156-0.973,0.24-1.956,0.253-2.952
			c0.012-0.996,0.018-1.926,0.018-2.79s-0.006-1.758-0.018-2.683C245.465,169.176,245.381,168.275,245.225,167.399z
			 M243.534,175.175c-0.013,0.877-0.072,1.752-0.18,2.628c-0.108,0.877-0.295,1.705-0.559,2.484
			c-0.265,0.78-0.647,1.435-1.152,1.962c-0.744,0.769-1.59,1.29-2.537,1.566c-0.949,0.275-1.938,0.414-2.971,0.414h-6.191v-22.177
			h6.191c1.032,0,2.021,0.139,2.971,0.414c0.947,0.276,1.793,0.799,2.537,1.566c0.505,0.528,0.888,1.146,1.152,1.854
			c0.264,0.709,0.45,1.453,0.559,2.232c0.107,0.78,0.167,1.572,0.18,2.376c0.012,0.805,0.018,1.565,0.018,2.286
			C243.551,173.501,243.545,174.299,243.534,175.175z"/>
		<path fill="#FFFFFF" d="M291.251,177.389c0,1.057-0.162,2.022-0.485,2.898c-0.324,0.876-0.787,1.62-1.387,2.231
			c-0.6,0.612-1.319,1.087-2.159,1.423c-0.841,0.336-1.776,0.504-2.809,0.504s-1.968-0.168-2.808-0.504
			c-0.841-0.336-1.561-0.811-2.16-1.423c-0.601-0.611-1.063-1.355-1.386-2.231c-0.324-0.876-0.486-1.842-0.486-2.898v-17.063h-1.944
			v17.315c0,1.249,0.217,2.395,0.648,3.438s1.038,1.944,1.818,2.7c0.779,0.756,1.703,1.344,2.771,1.764
			c1.067,0.42,2.25,0.63,3.546,0.63s2.478-0.21,3.546-0.63s1.992-1.008,2.772-1.764c0.779-0.756,1.386-1.656,1.817-2.7
			c0.433-1.044,0.648-2.189,0.648-3.438v-17.315h-1.944V177.389z"/>
		<path fill="#FFFFFF" d="M325.578,167.111c0.132-0.708,0.329-1.32,0.594-1.836c0.264-0.517,0.624-1.002,1.08-1.458
			c0.648-0.648,1.392-1.14,2.232-1.477c0.84-0.336,1.715-0.504,2.629-0.504c1.727,0,3.186,0.517,4.373,1.548
			c1.188,1.032,1.975,2.437,2.357,4.212h1.98c-0.215-1.151-0.576-2.189-1.08-3.113s-1.129-1.71-1.871-2.358
			c-0.744-0.648-1.604-1.146-2.574-1.494c-0.973-0.348-2.035-0.521-3.186-0.521c-1.225,0-2.389,0.229-3.492,0.684
			c-1.105,0.456-2.077,1.104-2.917,1.944c-0.576,0.576-1.026,1.176-1.351,1.8c-0.323,0.624-0.563,1.332-0.72,2.124
			s-0.246,1.71-0.27,2.754c-0.024,1.044-0.036,2.286-0.036,3.726c0,1.44,0.012,2.688,0.036,3.744c0.023,1.057,0.113,1.98,0.27,2.772
			s0.396,1.494,0.72,2.105c0.324,0.612,0.774,1.206,1.351,1.782c0.84,0.841,1.812,1.488,2.917,1.944
			c1.104,0.456,2.268,0.684,3.492,0.684c1.127,0,2.178-0.174,3.148-0.521c0.973-0.348,1.836-0.847,2.592-1.494
			c0.758-0.648,1.387-1.434,1.891-2.358c0.504-0.924,0.865-1.962,1.08-3.114h-1.908c-0.383,1.776-1.182,3.181-2.393,4.213
			c-1.213,1.032-2.684,1.548-4.41,1.548c-0.914,0-1.789-0.168-2.629-0.504s-1.583-0.828-2.232-1.477
			c-0.456-0.455-0.816-0.941-1.08-1.458c-0.265-0.516-0.462-1.128-0.594-1.836c-0.133-0.707-0.216-1.548-0.252-2.52
			c-0.036-0.973-0.054-2.143-0.054-3.511c0-1.367,0.018-2.537,0.054-3.51C325.362,168.659,325.445,167.819,325.578,167.111z"/>
		<path fill="#FFFFFF" d="M376.751,160.325l-9.432,25.632h2.088l2.232-6.228h11.951l2.232,6.228h2.088l-9.432-25.632H376.751z
			 M372.251,178.001l5.365-15.084l5.363,15.084H372.251z"/>
		<path fill="#FFFFFF" d="M416.874,167.111c0.131-0.708,0.328-1.32,0.594-1.836c0.264-0.517,0.623-1.002,1.08-1.458
			c0.648-0.648,1.391-1.14,2.232-1.477c0.84-0.336,1.715-0.504,2.627-0.504c1.729,0,3.186,0.517,4.375,1.548
			c1.188,1.032,1.973,2.437,2.357,4.212h1.98c-0.217-1.151-0.576-2.189-1.08-3.113s-1.129-1.71-1.873-2.358
			s-1.602-1.146-2.574-1.494c-0.971-0.348-2.033-0.521-3.186-0.521c-1.225,0-2.389,0.229-3.492,0.684
			c-1.104,0.456-2.076,1.104-2.916,1.944c-0.576,0.576-1.025,1.176-1.35,1.8s-0.564,1.332-0.721,2.124s-0.246,1.71-0.27,2.754
			s-0.035,2.286-0.035,3.726c0,1.44,0.012,2.688,0.035,3.744c0.023,1.057,0.113,1.98,0.27,2.772s0.396,1.494,0.721,2.105
			c0.324,0.612,0.773,1.206,1.35,1.782c0.84,0.841,1.813,1.488,2.916,1.944s2.268,0.684,3.492,0.684c1.129,0,2.178-0.174,3.15-0.521
			s1.836-0.847,2.592-1.494c0.756-0.648,1.387-1.434,1.891-2.358c0.504-0.924,0.863-1.962,1.08-3.114h-1.908
			c-0.385,1.776-1.184,3.181-2.395,4.213c-1.213,1.032-2.682,1.548-4.41,1.548c-0.912,0-1.787-0.168-2.627-0.504
			c-0.842-0.336-1.584-0.828-2.232-1.477c-0.457-0.455-0.816-0.941-1.08-1.458c-0.266-0.516-0.463-1.128-0.594-1.836
			c-0.133-0.707-0.217-1.548-0.252-2.52c-0.037-0.973-0.055-2.143-0.055-3.511c0-1.367,0.018-2.537,0.055-3.51
			C416.657,168.659,416.741,167.819,416.874,167.111z"/>
		<rect x="462.396" y="160.325" fill="#FFFFFF" width="1.943" height="25.632"/>
		<path fill="#FFFFFF" d="M512.093,166.661c-0.156-0.792-0.396-1.5-0.721-2.124s-0.773-1.224-1.35-1.8
			c-0.84-0.84-1.813-1.488-2.916-1.944c-1.104-0.455-2.268-0.684-3.492-0.684s-2.389,0.229-3.492,0.684
			c-1.104,0.456-2.076,1.104-2.916,1.944c-0.576,0.576-1.025,1.176-1.35,1.8s-0.564,1.332-0.721,2.124s-0.246,1.71-0.27,2.754
			s-0.035,2.286-0.035,3.726c0,1.44,0.012,2.688,0.035,3.744c0.023,1.057,0.113,1.98,0.27,2.772s0.396,1.494,0.721,2.105
			c0.324,0.612,0.773,1.206,1.35,1.782c0.84,0.841,1.813,1.488,2.916,1.944s2.268,0.684,3.492,0.684s2.389-0.228,3.492-0.684
			s2.076-1.104,2.916-1.944c0.576-0.576,1.025-1.17,1.35-1.782c0.324-0.611,0.564-1.313,0.721-2.105s0.246-1.716,0.27-2.772
			c0.023-1.056,0.035-2.304,0.035-3.744c0-1.439-0.012-2.682-0.035-3.726S512.249,167.453,512.093,166.661z M510.401,176.651
			c-0.037,0.972-0.121,1.813-0.254,2.52c-0.131,0.708-0.33,1.32-0.594,1.836c-0.264,0.517-0.623,1.003-1.08,1.458
			c-0.646,0.648-1.391,1.141-2.23,1.477c-0.842,0.336-1.717,0.504-2.629,0.504s-1.787-0.168-2.627-0.504
			c-0.842-0.336-1.584-0.828-2.232-1.477c-0.457-0.455-0.816-0.941-1.08-1.458c-0.266-0.516-0.463-1.128-0.594-1.836
			c-0.133-0.707-0.217-1.548-0.252-2.52c-0.037-0.973-0.055-2.143-0.055-3.511c0-1.367,0.018-2.537,0.055-3.51
			c0.035-0.972,0.119-1.812,0.252-2.52c0.131-0.708,0.328-1.32,0.594-1.836c0.264-0.517,0.623-1.002,1.08-1.458
			c0.648-0.648,1.391-1.14,2.232-1.477c0.84-0.336,1.715-0.504,2.627-0.504s1.787,0.168,2.629,0.504
			c0.84,0.337,1.584,0.828,2.23,1.477c0.457,0.456,0.816,0.941,1.08,1.458c0.264,0.516,0.463,1.128,0.594,1.836
			c0.133,0.708,0.217,1.548,0.254,2.52c0.035,0.973,0.053,2.143,0.053,3.51C510.454,174.509,510.437,175.679,510.401,176.651z"/>
		<polygon fill="#FFFFFF" points="559.63,182.537 544.835,160.325 542.89,160.325 542.89,185.957 544.835,185.957 544.835,163.673 
			559.63,185.957 561.573,185.957 561.573,160.325 559.63,160.325 		"/>
		<path fill="#FFFFFF" d="M599.085,160.325l-9.432,25.632h2.088l2.232-6.228h11.951l2.232,6.228h2.088l-9.432-25.632H599.085z
			 M594.585,178.001l5.365-15.084l5.363,15.084H594.585z"/>
		<polygon fill="#FFFFFF" points="640.271,184.229 640.271,160.325 638.325,160.325 638.325,185.957 653.878,185.957 
			653.878,184.229 		"/>
	</g>
</g>
</svg>
