<?xml version="1.0" encoding="utf-8"?>
<!-- Generator: Adobe Illustrator 16.0.0, SVG Export Plug-In . SVG Version: 6.00 Build 0)  -->
<!DOCTYPE svg PUBLIC "-//W3C//DTD SVG 1.1//EN" "http://www.w3.org/Graphics/SVG/1.1/DTD/svg11.dtd">
<svg version="1.1" id="Layer_1" xmlns="http://www.w3.org/2000/svg" xmlns:xlink="http://www.w3.org/1999/xlink" x="0px" y="0px"
	 width="655px" height="218px" viewBox="0 0 655 218" enable-background="new 0 0 655 218" xml:space="preserve">
<g>
	<g>
		<polygon fill="#1E4079" points="24.942,154.934 24.933,157.924 24.933,217.381 24.938,217.383 149.312,141.209 149.313,79.922 		
			"/>
		<polygon fill="#1E4079" points="125.499,0.617 1.126,76.791 1.123,138.078 125.495,63.066 125.499,62.055 		"/>
		<polygon fill="#0096D5" points="53.393,171.723 76.892,157.637 76.893,151.654 48.388,168.768 		"/>
		<polygon fill="#0096D5" points="1.125,82.385 5.793,79.527 1.122,76.789 		"/>
		<polygon fill="#0096D5" points="1.125,122.898 1.125,128.795 44.714,102.348 39.737,99.43 		"/>
		<polygon fill="#0096D5" points="61.24,176.355 76.889,166.99 76.89,161.008 56.225,173.395 		"/>
		<polygon fill="#0096D5" points="1.129,85.768 1.125,91.666 13.555,84.078 8.622,81.186 		"/>
		<polygon fill="#0096D5" points="29.921,157.865 76.897,129.576 76.899,123.6 24.949,154.93 		"/>
		<polygon fill="#0096D5" points="45.558,167.098 76.893,148.285 76.895,142.303 40.564,164.148 		"/>
		<polygon fill="#0096D5" points="1.129,104.336 1.125,110.229 29.109,93.199 24.156,90.295 		"/>
		<polygon fill="#0096D5" points="37.732,162.479 76.896,138.93 76.896,132.951 32.751,159.535 		"/>
		<polygon fill="#0096D5" points="1.129,95.049 1.125,100.947 21.325,88.635 16.384,85.736 		"/>
		<polygon fill="#0096D5" points="1.125,113.611 1.125,119.51 36.905,97.77 31.941,94.859 		"/>
		<polygon fill="#0096D5" points="1.617,141.154 6.558,144.072 60.363,111.523 55.366,108.594 		"/>
		<polygon fill="#0096D5" points="14.333,148.662 68.206,116.123 63.199,113.188 9.384,145.74 		"/>
		<polygon fill="#0096D5" points="1.126,132.176 1.125,138.074 52.656,106.998 47.546,104.008 		"/>
		<polygon fill="#0096D5" points="69.101,180.996 76.888,176.344 76.888,170.359 64.073,178.029 		"/>
		<polygon fill="#0096D5" points="76.885,185.592 76.887,179.709 71.934,182.67 		"/>
		<polygon fill="#0096D5" points="22.122,153.26 76.063,120.729 71.043,117.787 17.161,150.332 		"/>
		<polygon fill="#0096D5" points="97.045,46.277 73.547,60.363 73.545,66.346 102.05,49.232 		"/>
		<polygon fill="#0096D5" points="149.315,141.211 149.313,135.615 144.644,138.473 		"/>
		<polygon fill="#0096D5" points="149.313,89.205 105.725,115.652 110.701,118.57 149.313,95.102 		"/>
		<polygon fill="#0096D5" points="89.197,41.645 73.549,51.01 73.548,56.992 94.213,44.605 		"/>
		<polygon fill="#0096D5" points="149.309,132.232 149.312,126.332 136.884,133.922 141.815,136.813 		"/>
		<polygon fill="#0096D5" points="120.517,60.135 73.54,88.424 73.538,94.4 125.488,63.07 		"/>
		<polygon fill="#0096D5" points="104.88,50.902 73.545,69.715 73.543,75.697 109.873,53.852 		"/>
		<polygon fill="#0096D5" points="149.313,107.771 121.329,124.801 126.28,127.705 149.31,113.664 		"/>
		<polygon fill="#0096D5" points="112.705,55.521 73.543,79.07 73.541,85.049 117.687,58.463 		"/>
		<polygon fill="#0096D5" points="149.313,117.053 129.113,129.365 134.055,132.264 149.31,122.951 		"/>
		<polygon fill="#0096D5" points="149.313,98.49 113.531,120.229 118.497,123.141 149.313,104.389 		"/>
		<polygon fill="#0096D5" points="143.88,73.928 90.074,106.475 95.072,109.404 148.82,76.844 		"/>
		<polygon fill="#0096D5" points="136.104,69.338 82.231,101.877 87.238,104.813 141.054,72.26 		"/>
		<polygon fill="#0096D5" points="149.313,79.924 97.786,111.002 102.891,113.99 149.311,85.824 		"/>
		<polygon fill="#0096D5" points="81.337,37.004 73.55,41.658 73.55,47.641 86.364,39.971 		"/>
		<polygon fill="#0096D5" points="73.553,32.408 73.551,38.291 78.504,35.33 		"/>
		<polygon fill="#0096D5" points="128.315,64.74 74.375,97.27 79.395,100.213 133.276,67.668 		"/>
	</g>
	<g>
		<g>
			<polygon fill="#1E4079" stroke="#1E4079" stroke-miterlimit="10" points="182.892,186.314 198.444,186.314 198.444,184.587 
				184.836,184.587 184.836,174.255 196.428,174.255 196.428,172.526 184.836,172.526 184.836,162.41 198.444,162.41 
				198.444,160.683 182.892,160.683 			"/>
			<path fill="#1E4079" stroke="#1E4079" stroke-miterlimit="10" d="M245.225,167.757c-0.156-0.876-0.401-1.723-0.737-2.538
				c-0.337-0.816-0.828-1.548-1.477-2.196c-1.56-1.56-3.696-2.34-6.407-2.34H228v25.632h8.604c1.344,0,2.556-0.198,3.636-0.594
				c1.08-0.396,2.004-0.978,2.771-1.746c0.648-0.648,1.14-1.416,1.477-2.304c0.336-0.888,0.581-1.818,0.737-2.79
				c0.156-0.973,0.24-1.956,0.253-2.952c0.012-0.996,0.018-1.926,0.018-2.79s-0.006-1.758-0.018-2.683
				C245.465,169.533,245.381,168.633,245.225,167.757z M243.534,175.532c-0.013,0.877-0.072,1.752-0.18,2.628
				c-0.108,0.877-0.295,1.705-0.559,2.484c-0.265,0.78-0.647,1.435-1.152,1.962c-0.744,0.769-1.59,1.29-2.537,1.566
				c-0.949,0.275-1.938,0.414-2.971,0.414h-6.191V162.41h6.191c1.032,0,2.021,0.139,2.971,0.414
				c0.947,0.276,1.793,0.799,2.537,1.566c0.505,0.528,0.888,1.146,1.152,1.854c0.264,0.709,0.45,1.453,0.559,2.232
				c0.107,0.78,0.167,1.572,0.18,2.376c0.012,0.805,0.018,1.565,0.018,2.286C243.551,173.858,243.545,174.656,243.534,175.532z"/>
			<path fill="#1E4079" stroke="#1E4079" stroke-miterlimit="10" d="M291.251,177.746c0,1.057-0.162,2.022-0.485,2.898
				c-0.324,0.876-0.787,1.62-1.387,2.231c-0.6,0.612-1.319,1.087-2.159,1.423c-0.841,0.336-1.776,0.504-2.809,0.504
				s-1.968-0.168-2.808-0.504c-0.841-0.336-1.561-0.811-2.16-1.423c-0.601-0.611-1.063-1.355-1.386-2.231
				c-0.324-0.876-0.486-1.842-0.486-2.898v-17.063h-1.944v17.315c0,1.249,0.217,2.395,0.648,3.438s1.038,1.944,1.818,2.7
				c0.779,0.756,1.703,1.344,2.771,1.764c1.067,0.42,2.25,0.63,3.546,0.63s2.478-0.21,3.546-0.63s1.992-1.008,2.772-1.764
				c0.779-0.756,1.386-1.656,1.817-2.7c0.433-1.044,0.648-2.189,0.648-3.438v-17.315h-1.944V177.746z"/>
			<path fill="#1E4079" stroke="#1E4079" stroke-miterlimit="10" d="M325.578,167.469c0.132-0.708,0.329-1.32,0.594-1.836
				c0.264-0.517,0.624-1.002,1.08-1.458c0.648-0.648,1.392-1.14,2.232-1.477c0.84-0.336,1.715-0.504,2.629-0.504
				c1.727,0,3.186,0.517,4.373,1.548c1.188,1.032,1.975,2.437,2.357,4.212h1.98c-0.215-1.151-0.576-2.189-1.08-3.113
				s-1.129-1.71-1.871-2.358c-0.744-0.648-1.604-1.146-2.574-1.494c-0.973-0.348-2.035-0.521-3.186-0.521
				c-1.225,0-2.389,0.229-3.492,0.684c-1.105,0.456-2.077,1.104-2.917,1.944c-0.576,0.576-1.026,1.176-1.351,1.8
				c-0.323,0.624-0.563,1.332-0.72,2.124s-0.246,1.71-0.27,2.754c-0.024,1.044-0.036,2.286-0.036,3.726
				c0,1.44,0.012,2.688,0.036,3.744c0.023,1.057,0.113,1.98,0.27,2.772s0.396,1.494,0.72,2.105c0.324,0.612,0.774,1.206,1.351,1.782
				c0.84,0.841,1.812,1.488,2.917,1.944c1.104,0.456,2.268,0.684,3.492,0.684c1.127,0,2.178-0.174,3.148-0.521
				c0.973-0.348,1.836-0.847,2.592-1.494c0.758-0.648,1.387-1.434,1.891-2.358c0.504-0.924,0.865-1.962,1.08-3.114h-1.908
				c-0.383,1.776-1.182,3.181-2.393,4.213c-1.213,1.032-2.684,1.548-4.41,1.548c-0.914,0-1.789-0.168-2.629-0.504
				s-1.584-0.828-2.232-1.477c-0.456-0.455-0.816-0.941-1.08-1.458c-0.265-0.516-0.462-1.128-0.594-1.836
				c-0.133-0.707-0.216-1.548-0.252-2.52c-0.036-0.973-0.054-2.143-0.054-3.511c0-1.367,0.018-2.537,0.054-3.51
				C325.362,169.017,325.445,168.177,325.578,167.469z"/>
			<path fill="#1E4079" stroke="#1E4079" stroke-miterlimit="10" d="M376.751,160.683l-9.432,25.632h2.088l2.232-6.228h11.951
				l2.232,6.228h2.088l-9.432-25.632H376.751z M372.251,178.358l5.365-15.084l5.363,15.084H372.251z"/>
			<path fill="#1E4079" stroke="#1E4079" stroke-miterlimit="10" d="M416.874,167.469c0.131-0.708,0.328-1.32,0.594-1.836
				c0.264-0.517,0.623-1.002,1.08-1.458c0.648-0.648,1.391-1.14,2.232-1.477c0.84-0.336,1.715-0.504,2.627-0.504
				c1.729,0,3.186,0.517,4.375,1.548c1.188,1.032,1.973,2.437,2.357,4.212h1.98c-0.217-1.151-0.576-2.189-1.08-3.113
				s-1.129-1.71-1.873-2.358s-1.602-1.146-2.574-1.494c-0.971-0.348-2.033-0.521-3.186-0.521c-1.225,0-2.389,0.229-3.492,0.684
				c-1.104,0.456-2.076,1.104-2.916,1.944c-0.576,0.576-1.025,1.176-1.35,1.8s-0.564,1.332-0.721,2.124s-0.246,1.71-0.27,2.754
				s-0.035,2.286-0.035,3.726c0,1.44,0.012,2.688,0.035,3.744c0.023,1.057,0.113,1.98,0.27,2.772s0.396,1.494,0.721,2.105
				c0.324,0.612,0.773,1.206,1.35,1.782c0.84,0.841,1.813,1.488,2.916,1.944s2.268,0.684,3.492,0.684
				c1.129,0,2.178-0.174,3.15-0.521s1.836-0.847,2.592-1.494c0.756-0.648,1.387-1.434,1.891-2.358
				c0.504-0.924,0.863-1.962,1.08-3.114h-1.908c-0.385,1.776-1.184,3.181-2.395,4.213c-1.213,1.032-2.682,1.548-4.41,1.548
				c-0.912,0-1.787-0.168-2.627-0.504c-0.842-0.336-1.584-0.828-2.232-1.477c-0.457-0.455-0.816-0.941-1.08-1.458
				c-0.266-0.516-0.463-1.128-0.594-1.836c-0.133-0.707-0.217-1.548-0.252-2.52c-0.037-0.973-0.055-2.143-0.055-3.511
				c0-1.367,0.018-2.537,0.055-3.51C416.657,169.017,416.741,168.177,416.874,167.469z"/>
			<rect x="462.396" y="160.683" fill="#1E4079" stroke="#1E4079" stroke-miterlimit="10" width="1.943" height="25.632"/>
			<path fill="#1E4079" stroke="#1E4079" stroke-miterlimit="10" d="M512.093,167.019c-0.156-0.792-0.396-1.5-0.721-2.124
				s-0.773-1.224-1.35-1.8c-0.84-0.84-1.813-1.488-2.916-1.944c-1.104-0.455-2.268-0.684-3.492-0.684s-2.389,0.229-3.492,0.684
				c-1.104,0.456-2.076,1.104-2.916,1.944c-0.576,0.576-1.025,1.176-1.35,1.8s-0.564,1.332-0.721,2.124s-0.246,1.71-0.27,2.754
				s-0.035,2.286-0.035,3.726c0,1.44,0.012,2.688,0.035,3.744c0.023,1.057,0.113,1.98,0.27,2.772s0.396,1.494,0.721,2.105
				c0.324,0.612,0.773,1.206,1.35,1.782c0.84,0.841,1.813,1.488,2.916,1.944s2.268,0.684,3.492,0.684s2.389-0.228,3.492-0.684
				s2.076-1.104,2.916-1.944c0.576-0.576,1.025-1.17,1.35-1.782c0.324-0.611,0.564-1.313,0.721-2.105s0.246-1.716,0.27-2.772
				c0.023-1.056,0.035-2.304,0.035-3.744c0-1.439-0.012-2.682-0.035-3.726S512.249,167.811,512.093,167.019z M510.401,177.009
				c-0.037,0.972-0.121,1.813-0.254,2.52c-0.131,0.708-0.33,1.32-0.594,1.836c-0.264,0.517-0.623,1.003-1.08,1.458
				c-0.646,0.648-1.391,1.141-2.23,1.477c-0.842,0.336-1.717,0.504-2.629,0.504s-1.787-0.168-2.627-0.504
				c-0.842-0.336-1.584-0.828-2.232-1.477c-0.457-0.455-0.816-0.941-1.08-1.458c-0.266-0.516-0.463-1.128-0.594-1.836
				c-0.133-0.707-0.217-1.548-0.252-2.52c-0.037-0.973-0.055-2.143-0.055-3.511c0-1.367,0.018-2.537,0.055-3.51
				c0.035-0.972,0.119-1.812,0.252-2.52c0.131-0.708,0.328-1.32,0.594-1.836c0.264-0.517,0.623-1.002,1.08-1.458
				c0.648-0.648,1.391-1.14,2.232-1.477c0.84-0.336,1.715-0.504,2.627-0.504s1.787,0.168,2.629,0.504
				c0.84,0.337,1.584,0.828,2.23,1.477c0.457,0.456,0.816,0.941,1.08,1.458c0.264,0.516,0.463,1.128,0.594,1.836
				c0.133,0.708,0.217,1.548,0.254,2.52c0.035,0.973,0.053,2.143,0.053,3.51C510.454,174.866,510.437,176.036,510.401,177.009z"/>
			<polygon fill="#1E4079" stroke="#1E4079" stroke-miterlimit="10" points="559.63,182.895 544.835,160.683 542.89,160.683 
				542.89,186.314 544.835,186.314 544.835,164.03 559.63,186.314 561.573,186.314 561.573,160.683 559.63,160.683 			"/>
			<path fill="#1E4079" stroke="#1E4079" stroke-miterlimit="10" d="M599.085,160.683l-9.432,25.632h2.088l2.232-6.228h11.951
				l2.232,6.228h2.088l-9.432-25.632H599.085z M594.585,178.358l5.365-15.084l5.363,15.084H594.585z"/>
			<polygon fill="#1E4079" stroke="#1E4079" stroke-miterlimit="10" points="640.271,184.587 640.271,160.683 638.325,160.683 
				638.325,186.314 653.878,186.314 653.878,184.587 			"/>
		</g>
		<path fill="#0096D5" d="M258.125,113.777l6.292-22.371l6.291,22.371H258.125z M269.201,74.393h-9.569h-5.379l-21.841,66.598
			h18.059l7.147-25.416l3.221,12.279h13.828l3.694,13.137h18.061l-21.843-66.598H269.201z"/>
		<path fill="#0096D5" d="M565.679,113.777l6.291-22.371l6.291,22.371H565.679z M576.755,74.393h-9.57h-5.379l-21.842,66.598h18.061
			l7.146-25.416l3.221,12.279h13.828l3.695,13.137h18.061l-21.844-66.598H576.755z"/>
		<g>
			<path fill="#0096D5" d="M335.175,120.484c0,2.953-2.395,5.348-5.348,5.348h-8.57c-2.953,0-5.348-2.395-5.348-5.348v-25.57
				c0-2.953,2.395-5.346,5.348-5.346h8.57c2.953,0,5.348,2.393,5.348,5.346V120.484z M334.767,74.412h-18.449
				c-10.039,0-18.18,8.141-18.18,18.182v30.213c0,10.041,8.141,18.18,18.18,18.18h18.449c10.041,0,18.18-8.139,18.18-18.18v-7.424
				V92.594C352.946,82.553,344.808,74.412,334.767,74.412"/>
			<path fill="#0096D5" d="M392.497,120.484V74.387h-17.773v48.42c0,10.041,8.141,18.18,18.182,18.18h30.705v-15.154h-25.768
				C394.89,125.832,392.497,123.438,392.497,120.484"/>
			<path fill="#0096D5" d="M514.438,89.568h16.4l7.154-15.156h-28.494c-10.041,0-18.18,8.141-18.18,18.18v30.215
				c0,10.041,8.139,18.18,18.18,18.18h26.461v-15.154h-21.521c-2.953,0-5.348-2.395-5.348-5.348V94.916
				C509.091,91.963,511.485,89.568,514.438,89.568"/>
			<path fill="#0096D5" d="M218.846,103.744l-14.253-5.863c-1.708-0.701-2.821-2.363-2.821-4.209c0-2.443,1.98-4.424,4.423-4.424
				h16.875l4.753-14.855h-26.85c-10.184,0-18.44,8.258-18.44,18.439v1.133c0,7.742,4.676,14.721,11.838,17.664l14.253,5.863
				c1.707,0.701,2.821,2.363,2.821,4.209c0,2.443-1.979,4.424-4.423,4.424h-20.219v14.855h25.441
				c10.183,0,18.439-8.258,18.439-18.439v-1.133C230.684,113.666,226.007,106.688,218.846,103.744"/>
			<path fill="#0096D5" d="M640.573,103.744l-14.252-5.863c-1.709-0.701-2.822-2.363-2.822-4.209c0-2.443,1.98-4.424,4.424-4.424
				h16.873l4.754-14.855H622.7c-10.184,0-18.439,8.258-18.439,18.439v1.133c0,7.742,4.676,14.721,11.838,17.664l14.252,5.863
				c1.707,0.701,2.822,2.363,2.822,4.209c0,2.443-1.98,4.424-4.424,4.424H608.53v14.855h25.441c10.184,0,18.439-8.258,18.439-18.439
				v-1.133C652.411,113.666,647.735,106.688,640.573,103.744"/>
			<path fill="#0096D5" d="M258.107,65.787c2.71,0,10.741,4.18,13.643,4.18c3.104,0,5.603-0.951,7.493-2.852
				c1.729-1.742,3.231-3.932,4.521-6.531l-7.852-4.576c-0.068,0.115-1.631,2.508-2.334,2.984c-0.705,0.475-1.467,0.711-2.29,0.711
				c-1.14,0-2.246-0.221-3.319-0.664c-1.072-0.441-6.869-3.609-10.129-3.609c-3.041,0-5.557,0.887-7.535,2.66
				c-1.878,1.676-3.436,3.709-4.694,6.066l7.801,4.547C254.687,66.764,256.251,65.787,258.107,65.787"/>
			<path fill="#0096D5" d="M465.144,125.832H451.71c-2.953,0-5.346-2.395-5.346-5.348V74.424h-17.773v48.383
				c0,10.039,8.139,18.182,18.18,18.182l36.145,0.004V74.389h-17.771V125.832z"/>
		</g>
	</g>
</g>
</svg>
